<svg width="24" height="24" viewBox="0 0 24 24" fill="none" xmlns="http://www.w3.org/2000/svg">
<path fill-rule="evenodd" clip-rule="evenodd" d="M22 12C22 17.5228 17.5228 22 12 22C6.47715 22 2 17.5228 2 12C2 6.47715 6.47715 2 12 2C17.5228 2 22 6.47715 22 12ZM9.24521 19.5131C9.13134 19.2483 9.02641 18.9694 8.93 18.6802C8.64584 17.8277 8.41837 16.8324 8.25953 15.7405C7.16763 15.5816 6.17227 15.3542 5.31981 15.07C5.03058 14.9736 4.7517 14.8687 4.48695 14.7548C5.29466 16.957 7.043 18.7053 9.24521 19.5131ZM4.48695 9.24521C5.29466 7.043 7.043 5.29466 9.24521 4.48695C9.13134 4.7517 9.02641 5.03057 8.93 5.31981C8.64584 6.17227 8.41837 7.16763 8.25953 8.25953C7.16763 8.41837 6.17227 8.64584 5.31981 8.93C5.03057 9.02641 4.7517 9.13134 4.48695 9.24521ZM14.7548 4.48695C14.8687 4.7517 14.9736 5.03058 15.07 5.31981C15.3542 6.17227 15.5816 7.16763 15.7405 8.25953C16.8324 8.41837 17.8277 8.64584 18.6802 8.93C18.9694 9.02641 19.2483 9.13134 19.5131 9.24521C18.7053 7.04301 16.957 5.29466 14.7548 4.48695ZM19.5131 14.7548C19.2483 14.8687 18.9694 14.9736 18.6802 15.07C17.8277 15.3542 16.8324 15.5816 15.7405 15.7405C15.5816 16.8324 15.3542 17.8277 15.07 18.6802C14.9736 18.9694 14.8687 19.2483 14.7548 19.5131C16.957 18.7053 18.7053 16.957 19.5131 14.7548ZM11.9997 4C12.1414 3.99956 12.3097 4.23407 12.3823 4.32624C12.6425 4.65642 12.9206 5.19616 13.1726 5.95227C13.3741 6.55656 13.5474 7.26392 13.6825 8.05043C13.1347 8.0172 12.5724 8 12 8C11.4276 8 10.8653 8.0172 10.3175 8.05043C10.4526 7.26392 10.6259 6.55656 10.8274 5.95227C11.0794 5.19616 11.3575 4.65642 11.6177 4.32624C11.6908 4.23344 11.8576 4.00088 11.9997 4ZM4.32624 12.3823C4.65642 12.6425 5.19616 12.9206 5.95227 13.1726C6.55656 13.3741 7.26392 13.5474 8.05043 13.6825C8.0172 13.1347 8 12.5724 8 12C8 11.4276 8.0172 10.8653 8.05043 10.3175C7.26392 10.4526 6.55656 10.6259 5.95227 10.8274C5.19616 11.0794 4.65642 11.3575 4.32624 11.6177C4.1366 11.7671 3.99981 11.8832 4 12C4.00019 12.1157 4.13566 12.2321 4.32624 12.3823ZM10 12C10 12.6659 10.025 13.3113 10.0718 13.9282C10.6887 13.975 11.3341 14 12 14C12.6659 14 13.3113 13.975 13.9282 13.9282C13.975 13.3113 14 12.6659 14 12C14 11.3341 13.975 10.6887 13.9282 10.0718C13.3113 10.025 12.6659 10 12 10C11.3341 10 10.6887 10.025 10.0718 10.0718C10.025 10.6887 10 11.3341 10 12ZM10.8274 18.0477C10.6259 17.4434 10.4526 16.7361 10.3175 15.9496C10.8653 15.9828 11.4276 16 12 16C12.5724 16 13.1347 15.9828 13.6825 15.9496C13.5474 16.7361 13.3741 17.4434 13.1726 18.0477C12.9206 18.8038 12.6425 19.3436 12.3823 19.6738C12.1963 19.9098 12.0801 19.9941 12 19.994C11.9212 19.9939 11.8041 19.9103 11.6177 19.6738C11.3575 19.3436 11.0794 18.8038 10.8274 18.0477ZM18.0477 13.1726C17.4434 13.3741 16.7361 13.5474 15.9496 13.6825C15.9828 13.1347 16 12.5724 16 12C16 11.4276 15.9828 10.8653 15.9496 10.3175C16.7361 10.4526 17.4434 10.6259 18.0477 10.8274C18.8038 11.0794 19.3436 11.3575 19.6738 11.6177C19.9133 11.8064 20 11.875 20 12C20 12.125 19.7465 12.325 19.6738 12.3823C19.3436 12.6425 18.8038 12.9206 18.0477 13.1726Z" fill="#CDCDCD"/>
</svg>
