<svg width="20" height="20" viewBox="0 0 20 20" fill="none" xmlns="http://www.w3.org/2000/svg">
<path fill-rule="evenodd" clip-rule="evenodd" d="M19.1729 14.1339C20.0014 12.699 19.5097 10.8642 18.0749 10.0358L18.0127 9.99994L18.0748 9.9641C19.5097 9.13568 20.0013 7.30091 19.1729 5.86603L18.1729 4.13398C17.3445 2.6991 15.5097 2.20747 14.0748 3.0359L14.0126 3.0718V3C14.0126 1.34315 12.6695 2.94419e-07 11.0126 2.90038e-07L9.01263 0C7.35578 2.02095e-07 6.01263 1.34315 6.01263 3L6.01263 3.07168L5.95051 3.03582C4.51563 2.20739 2.68086 2.69902 1.85243 4.13389L0.852434 5.86594C0.0240068 7.30082 0.515631 9.13559 1.95051 9.96402L2.01273 9.99994L1.95045 10.0359C0.515575 10.8643 0.0239491 12.6991 0.852375 14.134L1.85237 15.866C2.6808 17.3009 4.51557 17.7925 5.95045 16.9641L6.01263 16.9282V17C6.01263 18.6569 7.35578 20 9.01263 20H11.0126C12.6695 20 14.0126 18.6569 14.0126 17V16.9281L14.0749 16.964C15.5097 17.7925 17.3445 17.3008 18.1729 15.8659L19.1729 14.1339ZM15.0126 4.80384C13.6793 5.57365 12.0126 4.6114 12.0126 3.07179V3C12.0126 2.44772 11.5649 2 11.0126 2L9.01263 2C8.46037 2 8.01267 2.44768 8.01263 2.99994L8.01263 3.07169C8.01263 4.61124 6.34605 5.57349 5.01272 4.80378L4.95051 4.76787C4.47222 4.49173 3.86063 4.6556 3.58448 5.13389L2.58448 6.86595C2.30834 7.34424 2.47222 7.95583 2.95051 8.23197L3.01264 8.26784C4.34606 9.03759 4.3461 10.9622 3.01272 11.732L2.95045 11.7679C2.47216 12.0441 2.30828 12.6557 2.58443 13.134L3.58443 14.866C3.86057 15.3443 4.47216 15.5082 4.95045 15.2321L5.01264 15.1961C6.34597 14.4264 8.01263 15.3886 8.01263 16.9282V17C8.01263 17.5523 8.46035 18 9.01263 18H11.0126C11.5649 18 12.0126 17.5523 12.0126 17V16.9281C12.0126 15.3884 13.6794 14.4262 15.0127 15.1961L15.0749 15.232C15.5532 15.5081 16.1647 15.3442 16.4409 14.8659L17.4409 13.1339C17.717 12.6556 17.5532 12.044 17.0749 11.7679L17.0127 11.732C15.6794 10.9621 15.6795 9.03768 17.0127 8.2679L17.0748 8.23205C17.5531 7.9559 17.717 7.34431 17.4408 6.86603L16.4408 5.13398C16.1647 4.65568 15.5531 4.49181 15.0748 4.76795L15.0126 4.80384Z" fill="#CDCDCD"/>
<path fill-rule="evenodd" clip-rule="evenodd" d="M10.0125 11.9999C11.117 11.9999 12.0125 11.1045 12.0125 9.99994C12.0125 8.89537 11.117 7.99994 10.0125 7.99994C8.90788 7.99994 8.01245 8.89537 8.01245 9.99994C8.01245 11.1045 8.90788 11.9999 10.0125 11.9999ZM10.0125 13.9999C12.2216 13.9999 14.0125 12.2091 14.0125 9.99994C14.0125 7.7908 12.2216 5.99994 10.0125 5.99994C7.80331 5.99994 6.01245 7.7908 6.01245 9.99994C6.01245 12.2091 7.80331 13.9999 10.0125 13.9999Z" fill="#CDCDCD"/>
</svg>
