<svg width="20" height="20" viewBox="0 0 20 20" fill="none" xmlns="http://www.w3.org/2000/svg">
<path fill-rule="evenodd" clip-rule="evenodd" d="M0 1.76595C0 1.25675 0.412787 0.843964 0.921986 0.843964H2.24821C3.51742 0.843964 4.62376 1.70776 4.93159 2.93908L5.0993 3.60992H17.1515C19.2618 3.60992 20.5913 5.87675 19.5677 7.71915L17.0066 12.3291C16.5188 13.2072 15.5933 13.7518 14.5888 13.7518H7.89363C6.62442 13.7518 5.51809 12.888 5.21026 11.6567L3.14267 3.38631C3.04006 2.97587 2.67128 2.68794 2.24821 2.68794H0.921986C0.412787 2.68794 0 2.27515 0 1.76595ZM5.56029 5.45389L6.99917 11.2094C7.10178 11.6199 7.47056 11.9078 7.89363 11.9078H14.5888C14.9236 11.9078 15.2321 11.7263 15.3947 11.4336L17.9558 6.82364C18.2979 6.2079 17.8531 5.45389 17.1515 5.45389H5.56029Z" fill="white"/>
<path d="M8.29787 17.4397C8.29787 18.4581 7.4723 19.2837 6.4539 19.2837C5.4355 19.2837 4.60993 18.4581 4.60993 17.4397C4.60993 16.4213 5.4355 15.5957 6.4539 15.5957C7.4723 15.5957 8.29787 16.4213 8.29787 17.4397Z" fill="white"/>
<path d="M17.5177 17.4397C17.5177 18.4581 16.6922 19.2837 15.6738 19.2837C14.6554 19.2837 13.8298 18.4581 13.8298 17.4397C13.8298 16.4213 14.6554 15.5957 15.6738 15.5957C16.6922 15.5957 17.5177 16.4213 17.5177 17.4397Z" fill="white"/>
</svg>
