<svg width="12" height="12" viewBox="0 0 12 12" fill="none" xmlns="http://www.w3.org/2000/svg">
<path fill-rule="evenodd" clip-rule="evenodd" d="M6 10C8.20914 10 10 8.20914 10 6C10 3.79086 8.20914 2 6 2C3.79086 2 2 3.79086 2 6C2 8.20914 3.79086 10 6 10ZM6 11C8.76142 11 11 8.76142 11 6C11 3.23858 8.76142 1 6 1C3.23858 1 1 3.23858 1 6C1 8.76142 3.23858 11 6 11Z" fill="#F54748"/>
<path d="M6 3.5C5.72386 3.5 5.5 3.72386 5.5 4V6.5C5.5 6.77614 5.72386 7 6 7H8C8.27614 7 8.5 6.77614 8.5 6.5C8.5 6.22386 8.27614 6 8 6H6.5V4C6.5 3.72386 6.27614 3.5 6 3.5Z" fill="#F54748"/>
</svg>
