<svg width="20" height="19" viewBox="0 0 20 19" fill="none" xmlns="http://www.w3.org/2000/svg">
<path fill-rule="evenodd" clip-rule="evenodd" d="M10.0142 0.000100441C10.3026 0.00418455 10.5752 0.13259 10.762 0.352352L19.262 10.3524C19.5144 10.6493 19.5713 11.0659 19.4077 11.4197C19.2441 11.7735 18.8898 12 18.5 12H17V18C17 18.5523 16.5523 19 16 19H11V14H9.00002V19H4.00002C3.44773 19 3.00002 18.5523 3.00002 18V12H1.00002C0.605108 12 0.247183 11.7676 0.0865185 11.4068C-0.0741465 11.0461 -0.00745708 10.6246 0.256724 10.331L9.25672 0.331035C9.44967 0.116652 9.72578 -0.00398367 10.0142 0.000100441ZM3.24538 10H5.00002V17H7.00002V12H13V17H15V10H16.3376L9.97851 2.51874L3.24538 10Z" fill="#FFB254"/>
</svg>
