<svg width="17" height="17" viewBox="0 0 17 17" fill="none" xmlns="http://www.w3.org/2000/svg">
<path fill-rule="evenodd" clip-rule="evenodd" d="M7 0C3.13401 0 0 3.13401 0 7C0 10.866 3.13401 14 7 14C8.57234 14 10.0236 13.4816 11.1922 12.6064L15.293 16.7072C15.6835 17.0977 16.3167 17.0977 16.7072 16.7072C17.0977 16.3167 17.0977 15.6835 16.7072 15.293L12.6064 11.1922C13.4816 10.0236 14 8.57234 14 7C14 3.13401 10.866 0 7 0ZM2 7C2 4.23858 4.23858 2 7 2C9.76142 2 12 4.23858 12 7C12 9.76142 9.76142 12 7 12C4.23858 12 2 9.76142 2 7Z" fill="#C9C9C9"/>
</svg>
