<svg width="10" height="10" viewBox="0 0 10 10" fill="none" xmlns="http://www.w3.org/2000/svg">
<path fill-rule="evenodd" clip-rule="evenodd" d="M5.00049 2.61803L4.71672 3.49139C4.5159 4.10942 3.93997 4.52786 3.29013 4.52786H2.37183L3.11475 5.06763C3.64048 5.44959 3.86047 6.12665 3.65966 6.74468L3.37589 7.61803L4.11881 7.07827C4.64454 6.69631 5.35643 6.69631 5.88216 7.07827L6.62508 7.61803L6.34131 6.74468C6.1405 6.12664 6.36049 5.44959 6.88622 5.06763L7.62914 4.52786H6.71084C6.061 4.52786 5.48507 4.10942 5.28426 3.49139L5.00049 2.61803ZM5.47601 0.845491C5.32634 0.384836 4.67463 0.384836 4.52496 0.845492L3.76566 3.18237C3.69872 3.38838 3.50674 3.52786 3.29013 3.52786H0.83299C0.348628 3.52786 0.14724 4.14767 0.539097 4.43237L2.52697 5.87665C2.70221 6.00397 2.77554 6.22965 2.7086 6.43566L1.9493 8.77254C1.79963 9.2332 2.32687 9.61626 2.71872 9.33156L4.70659 7.88729C4.88184 7.75997 5.11914 7.75997 5.29438 7.88729L7.28225 9.33156C7.67411 9.61626 8.20135 9.2332 8.05167 8.77254L7.29237 6.43566C7.22543 6.22965 7.29876 6.00397 7.47401 5.87664L9.46188 4.43237C9.85373 4.14767 9.65234 3.52786 9.16798 3.52786H6.71084C6.49423 3.52786 6.30225 3.38838 6.23531 3.18237L5.47601 0.845491Z" fill="#F54748"/>
</svg>
