<svg width="12" height="15" viewBox="0 0 12 15" fill="none" xmlns="http://www.w3.org/2000/svg">
<path d="M3.19196 5.60279L3.04203 5.60713L3.04195 5.60453C3.03087 5.22154 3.01202 4.56976 3.13883 3.86701C3.2659 3.16284 3.54129 2.39506 4.12864 1.79045C4.81869 1.08011 5.80349 0.729706 7.03426 0.7297L3.19196 5.60279ZM3.19196 5.60279L3.04203 5.60713C3.0445 5.69278 3.04654 5.76346 3.04654 5.81516C3.04654 6.39629 3.13956 6.93143 3.21963 7.39209L3.22031 7.39599C3.27279 7.69795 3.31526 7.9441 3.32273 8.13429C3.32533 8.20052 3.32286 8.24603 3.31936 8.27593C3.30387 8.27743 3.28429 8.2785 3.26007 8.2785C3.15692 8.2785 3.09105 8.2487 3.02541 8.1751L3.19196 5.60279ZM7.36611 1.07101L7.49594 0.995883C7.54279 1.07684 7.56752 1.1687 7.56765 1.26224C7.56778 1.35554 7.54343 1.44723 7.49704 1.52816C7.47659 1.56458 7.20832 2.05737 7.21983 2.70467C7.23116 3.34194 7.51343 4.15154 8.63789 4.83566C9.11939 5.12858 9.71066 5.65352 10.1825 6.33012C10.6547 7.00717 11.0143 7.84641 11.0144 8.7664C11.0144 10.1868 10.4578 11.5272 9.44841 12.5395C8.43631 13.5545 7.0928 14.1141 5.66654 14.1141C4.24498 14.1141 2.90114 13.546 1.88327 12.5171C1.39457 12.023 1.00977 11.4509 0.739932 10.817L0.877543 10.7584L0.739932 10.817C0.460756 10.1611 0.318987 9.47099 0.318987 8.76645C0.318987 8.01618 0.510072 7.22123 0.832539 6.6094C1.15004 6.00699 1.62347 5.53365 2.20793 5.53365H2.20794C2.28317 5.53365 2.35755 5.54957 2.42619 5.58037C2.49483 5.61116 2.55619 5.65612 2.60622 5.71231C2.65625 5.76849 2.69383 5.83463 2.71648 5.90637C2.73912 5.97804 2.74635 6.05369 2.7377 6.12835C2.70348 6.42646 2.69244 6.85259 2.73497 7.25276C2.75622 7.45266 2.79046 7.64237 2.84013 7.80461L7.36611 1.07101ZM7.36611 1.07101L7.49594 0.995883C7.44909 0.914922 7.38177 0.847708 7.30073 0.800986M7.36611 1.07101L7.30073 0.800986M1.66925 7.33199C1.68707 7.50947 1.71452 7.69233 1.75542 7.87186C1.83951 8.24104 1.98324 8.60866 2.22861 8.88422L2.33689 8.7878L2.22862 8.88422C2.49655 9.1851 2.85536 9.34514 3.26009 9.34514C3.62941 9.34514 3.9351 9.23206 4.14136 8.98682C4.14137 8.98682 4.14137 8.98682 4.14137 8.98681L4.02658 8.89026C4.34466 8.51213 4.24706 7.95038 4.12349 7.23918L1.66925 7.33199ZM1.66925 7.33199C1.48859 7.76211 1.38567 8.27466 1.38567 8.7664C1.38567 11.0854 3.34762 13.0474 5.66654 13.0474C8.02703 13.0474 9.94767 11.1268 9.94769 8.76642C9.94769 8.08999 9.66722 7.44686 9.28794 6.91205C8.90857 6.3771 8.4393 5.9634 8.0835 5.74694C6.48637 4.77527 6.14615 3.53538 6.15236 2.65783C6.15443 2.36425 6.19485 2.09463 6.24961 1.86227L1.66925 7.33199ZM7.30073 0.800986C7.21971 0.75427 7.12782 0.729686 7.03429 0.7297L7.30073 0.800986Z" fill="#717BBC" stroke="#717BBC" stroke-width="0.3"/>
</svg>
