<svg width="20" height="21" viewBox="0 0 20 21" fill="none" xmlns="http://www.w3.org/2000/svg">
<path d="M10.9823 1.49715C10.631 1.2239 10.4553 1.08727 10.2613 1.03476C10.0902 0.988415 9.9098 0.988415 9.73865 1.03476C9.54468 1.08727 9.36902 1.2239 9.0177 1.49715L2.23539 6.77228C1.78202 7.1249 1.55534 7.30121 1.39203 7.52201C1.24737 7.7176 1.1396 7.93794 1.07403 8.17221C1 8.43667 1 8.72385 1 9.29821V16.5331C1 17.6532 1 18.2133 1.21799 18.6411C1.40973 19.0174 1.71569 19.3234 2.09202 19.5152C2.51984 19.7331 3.0799 19.7331 4.2 19.7331H6.2C6.48003 19.7331 6.62004 19.7331 6.727 19.6786C6.82108 19.6307 6.89757 19.5542 6.9455 19.4601C7 19.3532 7 19.2132 7 18.9331V12.3331C7 11.7731 7 11.4931 7.10899 11.2791C7.20487 11.091 7.35785 10.938 7.54601 10.8421C7.75992 10.7331 8.03995 10.7331 8.6 10.7331H11.4C11.9601 10.7331 12.2401 10.7331 12.454 10.8421C12.6422 10.938 12.7951 11.091 12.891 11.2791C13 11.4931 13 11.7731 13 12.3331V18.9331C13 19.2132 13 19.3532 13.0545 19.4601C13.1024 19.5542 13.1789 19.6307 13.273 19.6786C13.38 19.7331 13.52 19.7331 13.8 19.7331H15.8C16.9201 19.7331 17.4802 19.7331 17.908 19.5152C18.2843 19.3234 18.5903 19.0174 18.782 18.6411C19 18.2133 19 17.6532 19 16.5331V9.29821C19 8.72385 19 8.43667 18.926 8.17221C18.8604 7.93794 18.7526 7.7176 18.608 7.52201C18.4447 7.30121 18.218 7.1249 17.7646 6.77228L10.9823 1.49715Z" stroke="#808080" stroke-width="2" stroke-linecap="round" stroke-linejoin="round"/>
</svg>
