<svg width="20" height="20" viewBox="0 0 20 20" fill="none" xmlns="http://www.w3.org/2000/svg">
<path d="M1.0365 8.35385C0.441154 8.12233 0.143481 8.00657 0.0565753 7.83977C-0.0187624 7.69517 -0.0188637 7.52292 0.0563038 7.37823C0.143013 7.21133 0.440551 7.09521 1.03562 6.86299L17.9234 0.272649C18.4606 0.0630178 18.7291 -0.0417977 18.9008 0.0155378C19.0498 0.0653303 19.1668 0.182298 19.2166 0.331347C19.2739 0.502975 19.1691 0.771565 18.9595 1.30875L12.3691 18.1965C12.1369 18.7916 12.0208 19.0891 11.8539 19.1758C11.7092 19.251 11.5369 19.2509 11.3923 19.1755C11.2255 19.0886 11.1098 18.791 10.8783 18.1956L8.25015 11.4376C8.20315 11.3168 8.17965 11.2563 8.14336 11.2055C8.11119 11.1604 8.07175 11.1209 8.02666 11.0888C7.97578 11.0525 7.91535 11.029 7.7945 10.982L1.0365 8.35385Z" fill="#363F72"/>
</svg>
