<svg width="22" height="22" viewBox="0 0 22 22" fill="none" xmlns="http://www.w3.org/2000/svg">
<path d="M2.08011 9.74448C1.48476 9.51296 1.18709 9.39719 1.10018 9.23039C1.02485 9.08579 1.02475 8.91354 1.09991 8.76886C1.18662 8.60195 1.48416 8.48584 2.07923 8.25361L18.967 1.66327C19.5042 1.45364 19.7727 1.34883 19.9444 1.40616C20.0934 1.45596 20.2104 1.57292 20.2602 1.72197C20.3175 1.8936 20.2127 2.16219 20.0031 2.69937L13.4127 19.5871C13.1805 20.1822 13.0644 20.4797 12.8975 20.5664C12.7528 20.6416 12.5806 20.6415 12.436 20.5662C12.2692 20.4793 12.1534 20.1816 11.9219 19.5862L9.29376 12.8282C9.24676 12.7074 9.22326 12.647 9.18697 12.5961C9.1548 12.551 9.11536 12.5115 9.07027 12.4794C9.01939 12.4431 8.95896 12.4196 8.83811 12.3726L2.08011 9.74448Z" stroke="#667085" stroke-width="2" stroke-linecap="round" stroke-linejoin="round"/>
</svg>
