<svg width="20" height="22" viewBox="0 0 20 22" fill="none" xmlns="http://www.w3.org/2000/svg">
<path d="M12 20.2109H8M16 7.21094C16 5.61964 15.3679 4.09352 14.2426 2.9683C13.1174 1.84308 11.5913 1.21094 10 1.21094C8.4087 1.21094 6.88258 1.84308 5.75736 2.9683C4.63214 4.09352 4 5.61964 4 7.21094C4 10.3011 3.22047 12.4169 2.34967 13.8163C1.61513 14.9968 1.24786 15.587 1.26133 15.7517C1.27624 15.934 1.31486 16.0035 1.46178 16.1125C1.59446 16.2109 2.19259 16.2109 3.38886 16.2109H16.6111C17.8074 16.2109 18.4055 16.2109 18.5382 16.1125C18.6851 16.0035 18.7238 15.934 18.7387 15.7517C18.7521 15.587 18.3849 14.9968 17.6503 13.8164C16.7795 12.4169 16 10.3011 16 7.21094Z" stroke="#101828" stroke-width="2" stroke-linecap="round" stroke-linejoin="round"/>
</svg>
