<svg width="15" height="12" viewBox="0 0 15 12" fill="none" xmlns="http://www.w3.org/2000/svg">
<path d="M13.5 6.42189L5.5 6.42189M13.5 2.42189L5.5 2.42189M13.5 10.4219L5.5 10.4219M2.83333 6.42189C2.83333 6.79008 2.53485 7.08855 2.16666 7.08855C1.79847 7.08855 1.5 6.79008 1.5 6.42189C1.5 6.0537 1.79847 5.75522 2.16666 5.75522C2.53485 5.75522 2.83333 6.0537 2.83333 6.42189ZM2.83333 2.42189C2.83333 2.79008 2.53485 3.08855 2.16666 3.08855C1.79847 3.08855 1.5 2.79008 1.5 2.42189C1.5 2.0537 1.79847 1.75522 2.16666 1.75522C2.53485 1.75522 2.83333 2.0537 2.83333 2.42189ZM2.83333 10.4219C2.83333 10.7901 2.53485 11.0886 2.16666 11.0886C1.79847 11.0886 1.5 10.7901 1.5 10.4219C1.5 10.0537 1.79847 9.75522 2.16666 9.75522C2.53485 9.75522 2.83333 10.0537 2.83333 10.4219Z" stroke="#717BBC" stroke-width="1.6" stroke-linecap="round" stroke-linejoin="round"/>
</svg>
